<svg width="1440" height="720" viewBox="0 0 1440 720" fill="none" xmlns="http://www.w3.org/2000/svg">
  <defs>
    <linearGradient id="bg" x1="0" y1="0" x2="1440" y2="720" gradientUnits="userSpaceOnUse">
      <stop stop-color="#0C0D0B"/>
      <stop offset="1" stop-color="#151713"/>
    </linearGradient>
    <radialGradient id="glow" cx="0" cy="0" r="1" gradientTransform="translate(1035 248) rotate(132) scale(480 530)" gradientUnits="userSpaceOnUse">
      <stop stop-color="#D8FF45" stop-opacity=".2"/>
      <stop offset="1" stop-color="#D8FF45" stop-opacity="0"/>
    </radialGradient>
    <filter id="shadow" x="-30%" y="-30%" width="160%" height="180%">
      <feDropShadow dx="0" dy="24" stdDeviation="28" flood-color="#000" flood-opacity=".42"/>
    </filter>
  </defs>
  <rect width="1440" height="720" rx="28" fill="url(#bg)"/>
  <rect width="1440" height="720" rx="28" fill="url(#glow)"/>
  <path d="M72 75H1368" stroke="#F4F3EA" stroke-opacity=".12"/>
  <rect x="73" y="38" width="12" height="12" fill="#D8FF45"/>
  <text x="96" y="50" fill="#F7F6EF" font-family="ui-monospace, SFMono-Regular, Menlo, monospace" font-size="15" font-weight="700" letter-spacing="2">HTML DOCS</text>
  <text x="74" y="156" fill="#D8FF45" font-family="ui-monospace, SFMono-Regular, Menlo, monospace" font-size="15" font-weight="700" letter-spacing="3">SOURCE → UNDERSTANDING</text>
  <text x="74" y="228" fill="#F7F6EF" font-family="Georgia, 'Times New Roman', serif" font-size="66" font-weight="700" letter-spacing="-3">One source.</text>
  <text x="74" y="298" fill="#F7F6EF" font-family="Georgia, 'Times New Roman', serif" font-size="66" font-weight="700" letter-spacing="-3">A document, a video,</text>
  <text x="74" y="368" fill="#F7F6EF" font-family="Georgia, 'Times New Roman', serif" font-size="66" font-weight="700" letter-spacing="-3">or a complete course.</text>
  <rect x="72" y="408" width="570" height="58" rx="8" fill="#D8FF45"/>
  <text x="94" y="444" fill="#161714" font-family="ui-monospace, SFMono-Regular, Menlo, monospace" font-size="16" font-weight="700">npx skills add raunaqbn/html-docs-skill -g</text>
  <text x="74" y="516" fill="#F7F6EF" fill-opacity=".62" font-family="Inter, Arial, sans-serif" font-size="19">Point Codex or Claude at a folder, site, paper, or idea.</text>
  <text x="74" y="548" fill="#F7F6EF" fill-opacity=".62" font-family="Inter, Arial, sans-serif" font-size="19">Get grounded explanations with voice, motion, citations, and checks.</text>
  <g filter="url(#shadow)">
    <rect x="763" y="138" width="538" height="390" rx="20" fill="#F4F2E9"/>
    <rect x="763" y="138" width="538" height="46" rx="20" fill="#E6E4DB"/>
    <rect x="783" y="155" width="8" height="8" rx="4" fill="#161714" fill-opacity=".32"/>
    <rect x="799" y="155" width="8" height="8" rx="4" fill="#161714" fill-opacity=".2"/>
    <rect x="815" y="155" width="8" height="8" rx="4" fill="#D8FF45"/>
    <text x="1242" y="164" fill="#161714" fill-opacity=".46" font-family="ui-monospace, monospace" font-size="10">GUIDED STUDIO</text>
    <rect x="781" y="203" width="112" height="303" rx="10" fill="#191A17"/>
    <rect x="797" y="224" width="80" height="7" rx="3.5" fill="#D8FF45"/>
    <rect x="797" y="247" width="78" height="62" rx="7" fill="#2D2F29"/>
    <rect x="805" y="256" width="44" height="5" rx="2.5" fill="#F4F2E9" fill-opacity=".8"/>
    <rect x="805" y="270" width="60" height="4" rx="2" fill="#F4F2E9" fill-opacity=".25"/>
    <rect x="797" y="319" width="78" height="62" rx="7" fill="#2D2F29"/>
    <rect x="805" y="328" width="52" height="5" rx="2.5" fill="#F4F2E9" fill-opacity=".8"/>
    <rect x="805" y="342" width="62" height="4" rx="2" fill="#F4F2E9" fill-opacity=".25"/>
    <rect x="797" y="391" width="78" height="62" rx="7" fill="#2D2F29"/>
    <rect x="805" y="400" width="38" height="5" rx="2.5" fill="#F4F2E9" fill-opacity=".8"/>
    <rect x="805" y="414" width="58" height="4" rx="2" fill="#F4F2E9" fill-opacity=".25"/>
    <rect x="910" y="203" width="269" height="172" rx="10" fill="#10110F"/>
    <text x="932" y="233" fill="#D8FF45" font-family="ui-monospace, monospace" font-size="9" font-weight="700" letter-spacing="1.5">BUILD THE MENTAL MODEL</text>
    <text x="932" y="270" fill="#F4F2E9" font-family="Georgia, serif" font-size="25" font-weight="700">Words become</text>
    <text x="932" y="299" fill="#F4F2E9" font-family="Georgia, serif" font-size="25" font-weight="700">timed visual cues.</text>
    <circle cx="950" cy="332" r="12" fill="#D8FF45"/>
    <path d="M962 332H1002" stroke="#D8FF45" stroke-width="2"/>
    <rect x="1002" y="318" width="68" height="28" rx="6" fill="#F4F2E9" fill-opacity=".12" stroke="#F4F2E9" stroke-opacity=".35"/>
    <path d="M1070 332H1110" stroke="#D8FF45" stroke-width="2"/>
    <rect x="1110" y="318" width="48" height="28" rx="6" fill="#D8FF45"/>
    <rect x="1196" y="203" width="87" height="172" rx="10" fill="#191A17"/>
    <text x="1208" y="226" fill="#F4F2E9" fill-opacity=".42" font-family="ui-monospace, monospace" font-size="8">SELECTION</text>
    <rect x="1208" y="243" width="57" height="7" rx="3.5" fill="#D8FF45"/>
    <rect x="1208" y="264" width="58" height="4" rx="2" fill="#F4F2E9" fill-opacity=".3"/>
    <rect x="1208" y="278" width="48" height="4" rx="2" fill="#F4F2E9" fill-opacity=".2"/>
    <rect x="1208" y="309" width="58" height="27" rx="6" fill="#D8FF45"/>
    <rect x="910" y="392" width="373" height="114" rx="10" fill="#191A17"/>
    <path d="M929 437L938 428L946 446L955 418L964 453L973 431L982 442L991 423L1000 450L1009 427L1018 441L1027 417L1036 451L1045 429L1054 444L1063 422L1072 449L1081 426L1090 439L1099 420L1108 452L1117 432L1126 445L1135 424L1144 451L1153 428L1162 441L1171 422L1180 448L1189 430L1198 443L1207 425L1216 450L1225 431L1234 440L1243 427L1252 444L1264 434" stroke="#F4F2E9" stroke-opacity=".5"/>
    <rect x="929" y="466" width="96" height="17" rx="4" fill="#D8FF45"/>
    <rect x="1031" y="466" width="132" height="17" rx="4" fill="#809BFF"/>
    <rect x="1169" y="466" width="94" height="17" rx="4" fill="#70E1D2"/>
  </g>
  <rect x="763" y="553" width="538" height="68" rx="12" fill="#1D1F1A" stroke="#F4F2E9" stroke-opacity=".12"/>
  <text x="785" y="581" fill="#D8FF45" font-family="ui-monospace, monospace" font-size="11" font-weight="700">PRIVATE PREVIEW</text>
  <text x="785" y="604" fill="#F7F6EF" fill-opacity=".72" font-family="Inter, Arial, sans-serif" font-size="14">Research · page · narration · scenes · captions · course site</text>
</svg>
